<?xml version="1.0" encoding="UTF-8"?>
<svg xmlns="http://www.w3.org/2000/svg" xmlns:xlink="http://www.w3.org/1999/xlink" width="612pt" height="792pt" viewBox="0 0 612 792">
<path fill-rule="nonzero" fill="rgb(99.130249%, 99.388123%, 99.476624%)" fill-opacity="1" d="M 249.820312 705.140625 L 249.820312 740.515625 L 265.058594 740.515625 L 265.058594 750.253906 L 239.054688 750.253906 L 239.054688 705.140625 L 249.820312 705.140625 "/>
<path fill-rule="nonzero" fill="rgb(99.130249%, 99.388123%, 99.476624%)" fill-opacity="1" d="M 271.832031 705.140625 L 282.59375 705.140625 L 282.59375 750.253906 L 271.832031 750.253906 L 271.832031 705.140625 "/>
<path fill-rule="nonzero" fill="rgb(99.130249%, 99.388123%, 99.476624%)" fill-opacity="1" d="M 314.765625 751.703125 C 300.675781 751.703125 289.730469 740.941406 289.730469 727.636719 C 289.730469 714.390625 300.675781 703.6875 314.765625 703.6875 C 321.355469 703.6875 327.585938 706.226562 331.820312 710.039062 L 324.925781 717.71875 C 322.265625 715.058594 318.636719 713.546875 314.765625 713.546875 C 306.722656 713.546875 300.554688 719.835938 300.554688 727.636719 C 300.554688 735.558594 306.722656 741.847656 314.765625 741.847656 C 320.269531 741.847656 324.683594 738.15625 326.195312 733.199219 L 315.066406 733.199219 L 318.636719 724.550781 L 337.625 724.550781 L 337.625 727.574219 C 337.625 741.121094 327.585938 751.703125 314.765625 751.703125 "/>
<path fill-rule="nonzero" fill="rgb(99.130249%, 99.388123%, 99.476624%)" fill-opacity="1" d="M 344.699219 705.140625 L 355.464844 705.140625 L 355.464844 721.347656 L 370.460938 721.347656 L 370.460938 705.140625 L 381.226562 705.140625 L 381.226562 750.253906 L 370.460938 750.253906 L 370.460938 731.082031 L 355.464844 731.082031 L 355.464844 750.253906 L 344.699219 750.253906 L 344.699219 705.140625 "/>
<path fill-rule="nonzero" fill="rgb(99.130249%, 99.388123%, 99.476624%)" fill-opacity="1" d="M 395.378906 714.816406 L 387.636719 714.816406 L 387.636719 705.140625 L 413.820312 705.140625 L 413.820312 714.816406 L 406.140625 714.816406 L 406.140625 750.253906 L 395.378906 750.253906 L 395.378906 714.816406 "/>
<path fill-rule="nonzero" fill="rgb(99.130249%, 99.388123%, 99.476624%)" fill-opacity="1" d="M 443.339844 705.140625 L 443.339844 745.292969 L 459.96875 745.292969 L 459.96875 750.253906 L 437.777344 750.253906 L 437.777344 705.140625 L 443.339844 705.140625 "/>
<path fill-rule="nonzero" fill="rgb(99.130249%, 99.388123%, 99.476624%)" fill-opacity="1" d="M 467.347656 727.574219 C 467.347656 737.796875 475.871094 746.625 486.394531 746.625 C 496.917969 746.625 505.382812 737.855469 505.382812 727.574219 C 505.382812 717.597656 496.917969 708.769531 486.394531 708.769531 C 475.871094 708.769531 467.347656 717.597656 467.347656 727.574219 Z M 511.007812 727.636719 C 511.007812 740.941406 500.121094 751.703125 486.394531 751.703125 C 472.609375 751.703125 461.722656 740.941406 461.722656 727.636719 C 461.722656 714.390625 472.609375 703.6875 486.394531 703.6875 C 500.121094 703.6875 511.007812 714.390625 511.007812 727.636719 "/>
<path fill-rule="nonzero" fill="rgb(99.130249%, 99.388123%, 99.476624%)" fill-opacity="1" d="M 535.316406 751.703125 C 524.554688 751.703125 518.867188 744.328125 518.867188 732.65625 L 518.867188 705.140625 L 524.433594 705.140625 L 524.433594 734.410156 C 524.433594 742.511719 529.753906 746.625 535.316406 746.625 C 541.121094 746.625 546.324219 742.511719 546.324219 734.410156 L 546.324219 705.140625 L 551.886719 705.140625 L 551.886719 732.65625 C 551.886719 744.328125 546.324219 751.703125 535.316406 751.703125 "/>
<path fill-rule="nonzero" fill="rgb(99.130249%, 99.388123%, 99.476624%)" fill-opacity="1" d="M 566.761719 714.152344 L 566.761719 750.253906 L 561.199219 750.253906 L 561.199219 705.140625 L 567.066406 705.140625 L 592.28125 740.699219 L 592.28125 705.140625 L 597.847656 705.140625 L 597.847656 750.253906 L 592.402344 750.253906 L 566.761719 714.152344 "/>
<path fill-rule="nonzero" fill="rgb(99.130249%, 99.388123%, 99.476624%)" fill-opacity="1" d="M 630.378906 751.703125 C 616.59375 751.703125 605.707031 740.941406 605.707031 727.636719 C 605.707031 714.390625 616.59375 703.6875 630.378906 703.6875 C 636.910156 703.6875 643.019531 706.167969 647.191406 709.976562 L 643.441406 713.847656 C 639.753906 710.582031 635.339844 708.769531 630.378906 708.769531 C 619.855469 708.769531 611.332031 717.597656 611.332031 727.574219 C 611.332031 737.796875 619.855469 746.625 630.378906 746.625 C 639.328125 746.625 646.648438 739.308594 647.492188 730.476562 L 632.132812 730.539062 L 634.371094 725.398438 L 653.238281 725.398438 L 653.238281 727.757812 C 653.238281 740.941406 643.140625 751.703125 630.378906 751.703125 "/>
<path fill-rule="nonzero" fill="rgb(99.130249%, 99.388123%, 99.476624%)" fill-opacity="1" d="M 244.027344 688.964844 L 240.078125 688.964844 L 240.078125 668.234375 L 244.191406 668.234375 L 250.972656 678.824219 L 257.476562 668.234375 L 261.53125 668.234375 L 261.53125 688.964844 L 257.585938 688.964844 L 257.585938 675.125 L 251.195312 685.1875 L 250.640625 685.1875 L 244.027344 675.042969 L 244.027344 688.964844 "/>
<path fill-rule="nonzero" fill="rgb(99.130249%, 99.388123%, 99.476624%)" fill-opacity="1" d="M 273.128906 678.570312 C 273.128906 682.601562 276.410156 685.992188 280.550781 685.992188 C 284.71875 685.992188 287.96875 682.628906 287.96875 678.570312 C 287.96875 674.570312 284.71875 671.210938 280.550781 671.210938 C 276.410156 671.210938 273.128906 674.570312 273.128906 678.570312 Z M 291.972656 678.570312 C 291.972656 684.6875 286.941406 689.632812 280.550781 689.632812 C 274.132812 689.632812 269.128906 684.6875 269.128906 678.570312 C 269.128906 672.488281 274.132812 667.570312 280.550781 667.570312 C 286.941406 667.570312 291.972656 672.488281 291.972656 678.570312 "/>
<path fill-rule="nonzero" fill="rgb(99.130249%, 99.388123%, 99.476624%)" fill-opacity="1" d="M 303.539062 674.902344 L 303.539062 688.964844 L 299.566406 688.964844 L 299.566406 668.234375 L 303.484375 668.234375 L 313.542969 682.214844 L 313.542969 668.234375 L 317.519531 668.234375 L 317.519531 688.964844 L 313.683594 688.964844 L 303.539062 674.902344 "/>
<path fill-rule="nonzero" fill="rgb(99.130249%, 99.388123%, 99.476624%)" fill-opacity="1" d="M 328.335938 671.792969 L 324.695312 671.792969 L 324.695312 668.234375 L 335.949219 668.234375 L 335.949219 671.792969 L 332.308594 671.792969 L 332.308594 688.964844 L 328.335938 688.964844 L 328.335938 671.792969 "/>
<path fill-rule="nonzero" fill="rgb(99.130249%, 99.388123%, 99.476624%)" fill-opacity="1" d="M 353.992188 682.1875 L 350.601562 673.097656 L 347.183594 682.1875 Z M 355.183594 685.378906 L 345.988281 685.378906 L 344.625 688.964844 L 340.511719 688.964844 L 348.683594 668.234375 L 352.628906 668.234375 L 360.800781 688.964844 L 356.519531 688.964844 L 355.183594 685.378906 "/>
<path fill-rule="nonzero" fill="rgb(99.130249%, 99.388123%, 99.476624%)" fill-opacity="1" d="M 371.753906 674.902344 L 371.753906 688.964844 L 367.78125 688.964844 L 367.78125 668.234375 L 371.699219 668.234375 L 381.757812 682.214844 L 381.757812 668.234375 L 385.730469 668.234375 L 385.730469 688.964844 L 381.898438 688.964844 L 371.753906 674.902344 "/>
<path fill-rule="nonzero" fill="rgb(99.130249%, 99.388123%, 99.476624%)" fill-opacity="1" d="M 406.195312 682.1875 L 402.804688 673.097656 L 399.386719 682.1875 Z M 407.386719 685.378906 L 398.191406 685.378906 L 396.828125 688.964844 L 392.714844 688.964844 L 400.886719 668.234375 L 404.832031 668.234375 L 413.003906 688.964844 L 408.722656 688.964844 L 407.386719 685.378906 "/>
<path fill-rule="nonzero" fill="rgb(99.130249%, 99.388123%, 99.476624%)" fill-opacity="1" d="M 213.976562 723.476562 C 209.03125 723.964844 202.550781 722.703125 197.8125 723.832031 C 194.796875 724.550781 192.988281 729.738281 188.347656 729.746094 C 180.300781 729.757812 179.679688 715.777344 177.320312 710.296875 C 177.117188 709.832031 176.941406 709.128906 176.242188 709.242188 C 173.960938 717.921875 173.820312 727.519531 171.664062 736.136719 C 170.785156 739.648438 169.753906 744.425781 165.050781 743.359375 C 161.101562 742.46875 159.566406 732.101562 158.957031 728.664062 C 156.863281 716.914062 155.878906 704.929688 153.152344 693.300781 L 152.289062 693.457031 C 151.207031 698.867188 150.328125 704.320312 148.875 709.644531 C 146.378906 718.777344 143.886719 727.816406 132.035156 725.105469 C 124.738281 723.441406 114.246094 709.390625 108.742188 703.679688 C 107.726562 702.625 103.328125 697.925781 102.308594 697.855469 C 100.828125 697.753906 99.175781 699.816406 98.1875 700.832031 C 94.398438 704.710938 91.125 709.195312 87.488281 713.21875 C 87.171875 713.902344 87.53125 714.363281 87.789062 714.949219 C 88.441406 716.445312 92.316406 720.835938 92.234375 721.910156 C 92.210938 722.207031 92.042969 722.53125 91.753906 722.613281 C 90.347656 723.019531 78.472656 713.632812 76.359375 712.417969 C 75.457031 711.867188 74.574219 711.980469 73.710938 712.527344 C 71.382812 714.007812 68.523438 717.117188 66.144531 718.917969 C 63.628906 720.820312 61.078125 722.632812 58.019531 723.613281 C 56.453125 724.117188 52.714844 725.421875 54.023438 722.460938 C 62.203125 717.195312 68.40625 709.105469 74.554688 701.695312 C 75.046875 701.394531 76.28125 701.46875 76.828125 701.699219 C 77.886719 702.144531 80.980469 706.871094 82.378906 707.832031 C 82.628906 708.007812 82.761719 708.242188 83.09375 707.976562 L 100.769531 686.324219 L 101.777344 685.886719 C 103.621094 685.769531 107.355469 691.175781 108.566406 692.742188 C 113.054688 698.550781 116.929688 704.851562 121.4375 710.636719 C 125.085938 715.3125 132.039062 724.546875 138.777344 719.203125 C 144.601562 714.578125 146.261719 693.691406 149.328125 686.171875 C 151.277344 681.398438 155.097656 682.796875 156.722656 687.027344 C 162.207031 701.300781 161.4375 720.886719 165.496094 735.792969 C 166.265625 738.605469 166.816406 736.605469 167.089844 734.980469 C 168.199219 728.367188 169.902344 706.839844 173.839844 702.421875 C 175.285156 700.796875 177.3125 700.375 178.992188 701.933594 C 181.839844 704.578125 183.859375 716.925781 185.789062 721.199219 C 188.675781 727.601562 191.210938 721.507812 194.605469 719.769531 C 198.847656 717.59375 209.230469 719.640625 214.25 718.941406 C 216.832031 719.347656 215.855469 722.796875 213.976562 723.476562 Z M 114.132812 684.09375 C 117.269531 682.234375 121.117188 681.570312 124.925781 682.546875 C 128.738281 683.519531 131.792969 685.949219 133.648438 689.085938 C 135.507812 692.21875 136.171875 696.066406 135.195312 699.878906 C 134.222656 703.6875 131.792969 706.742188 128.65625 708.601562 C 127.960938 709.015625 127.222656 709.371094 126.464844 709.660156 C 129.128906 707.855469 131.167969 705.109375 132.027344 701.75 C 132.960938 698.101562 132.328125 694.417969 130.546875 691.417969 C 128.769531 688.414062 125.84375 686.09375 122.195312 685.160156 C 118.550781 684.226562 114.867188 684.859375 111.867188 686.640625 C 111.082031 687.105469 110.34375 687.648438 109.664062 688.261719 C 110.84375 686.550781 112.378906 685.132812 114.132812 684.09375 Z M 224.652344 750.707031 C 224.171875 723.066406 223.011719 694.519531 221.542969 666.941406 C 221.507812 666.289062 221.234375 663.085938 221.105469 662.824219 C 220.949219 662.5 220.351562 662.128906 219.976562 662.097656 C 218.242188 661.953125 215.757812 662.484375 213.996094 662.550781 C 155.09375 664.773438 96.601562 665.507812 37.664062 662.539062 C 32.773438 662.296875 27.882812 662.0625 23.003906 661.808594 C 22.179688 662.195312 22.035156 664.132812 21.898438 665 C 21.328125 668.605469 20.019531 683.234375 21.0625 685.976562 C 21.515625 687.171875 22.550781 687.667969 23.230469 688.648438 C 24.484375 690.460938 25.230469 692.613281 26.726562 694.289062 C 27.304688 695.234375 26.371094 695.828125 26.195312 696.640625 C 25.867188 698.128906 26.453125 699.839844 27.433594 700.96875 C 28.691406 702.40625 29.929688 701.914062 31.355469 702.742188 C 33.867188 704.199219 37.921875 713.257812 39.964844 716.066406 C 41.351562 717.976562 41.574219 717.476562 43.292969 718.4375 C 45.289062 719.554688 45.933594 721.03125 45.75 723.316406 C 45.585938 725.304688 44.753906 729.503906 44.292969 731.546875 C 43.992188 732.882812 42.875 733.644531 42.675781 735.054688 C 42.460938 736.566406 42.839844 738.332031 42.625 739.847656 C 42.496094 740.78125 41.902344 741.484375 41.789062 742.425781 C 41.589844 744.074219 41.898438 745.617188 43.210938 746.714844 C 46.339844 749.324219 49.132812 741.933594 52.210938 743.703125 C 52.59375 743.921875 54.996094 746.480469 55.242188 746.933594 C 55.921875 748.1875 56.433594 750.476562 57.042969 751.96875 C 58.46875 755.457031 58.914062 755.863281 59.53125 759.738281 C 60.128906 763.484375 62.183594 762.964844 63.925781 764.882812 C 65.667969 766.796875 64.066406 770.582031 68.378906 772.535156 C 72.539062 774.417969 72.125 771.074219 74.722656 770.78125 C 75.796875 770.660156 77.09375 771.335938 78.078125 771.253906 C 79.144531 771.167969 80.339844 769.851562 81.550781 769.65625 C 83.363281 769.363281 85.8125 769.957031 87.808594 769.933594 C 88.910156 769.921875 95.304688 769.441406 95.796875 769.089844 C 96.765625 768.390625 96.675781 766.6875 99.15625 767.964844 C 100.113281 768.460938 102.695312 772.320312 103.964844 769.570312 C 104.894531 767.558594 103.636719 760.847656 104.238281 758.160156 C 104.433594 757.289062 105.433594 756.398438 106.328125 756.265625 C 142.761719 756.792969 179.105469 755.5625 215.394531 754.53125 C 217.035156 754.484375 223.132812 754.859375 224.097656 754.398438 C 225.496094 753.734375 224.671875 751.742188 224.652344 750.707031 "/>
</svg>
