<?xml version="1.0" encoding="UTF-8"?>
<svg xmlns="http://www.w3.org/2000/svg" xmlns:xlink="http://www.w3.org/1999/xlink" width="612pt" height="792pt" viewBox="0 0 612 792">
<defs>
<clipPath id="clip-0">
<path clip-rule="nonzero" d="M 108 575 L 350 575 L 350 708 L 108 708 Z M 108 575 "/>
</clipPath>
<clipPath id="clip-1">
<path clip-rule="nonzero" d="M 349.035156 680.742188 C 348.46875 648.171875 347.097656 614.535156 345.371094 582.039062 C 345.332031 581.269531 345.007812 577.496094 344.855469 577.1875 C 344.671875 576.804688 343.964844 576.367188 343.527344 576.332031 C 341.480469 576.160156 338.554688 576.785156 336.476562 576.863281 C 267.074219 579.484375 198.152344 580.351562 128.707031 576.855469 C 122.945312 576.5625 117.183594 576.289062 111.429688 575.992188 C 110.460938 576.445312 110.289062 578.730469 110.128906 579.75 C 109.457031 584.003906 107.917969 601.238281 109.144531 604.46875 C 109.679688 605.875 110.902344 606.460938 111.703125 607.617188 C 113.179688 609.75 114.058594 612.285156 115.816406 614.261719 C 116.5 615.378906 115.398438 616.074219 115.191406 617.03125 C 114.808594 618.789062 115.496094 620.804688 116.652344 622.132812 C 118.132812 623.824219 119.59375 623.246094 121.277344 624.222656 C 124.230469 625.941406 129.011719 636.613281 131.417969 639.925781 C 133.054688 642.175781 133.316406 641.582031 135.339844 642.714844 C 137.691406 644.03125 138.453125 645.773438 138.234375 648.464844 C 138.042969 650.808594 137.0625 655.757812 136.519531 658.160156 C 136.160156 659.738281 134.847656 660.632812 134.613281 662.296875 C 134.359375 664.078125 134.804688 666.160156 134.554688 667.945312 C 134.398438 669.042969 133.703125 669.871094 133.570312 670.984375 C 133.335938 672.925781 133.695312 674.742188 135.246094 676.035156 C 138.929688 679.109375 142.222656 670.402344 145.84375 672.488281 C 146.296875 672.746094 149.128906 675.761719 149.417969 676.296875 C 150.21875 677.769531 150.824219 680.46875 151.542969 682.226562 C 153.21875 686.335938 153.742188 686.816406 154.472656 691.378906 C 155.175781 695.796875 157.597656 695.183594 159.652344 697.441406 C 161.703125 699.699219 159.816406 704.15625 164.898438 706.460938 C 169.800781 708.679688 169.3125 704.738281 172.375 704.394531 C 173.640625 704.253906 175.164062 705.042969 176.328125 704.953125 C 177.582031 704.851562 178.992188 703.296875 180.414062 703.066406 C 182.554688 702.722656 185.4375 703.417969 187.792969 703.394531 C 189.089844 703.382812 196.625 702.816406 197.203125 702.402344 C 198.347656 701.578125 198.242188 699.566406 201.164062 701.074219 C 202.289062 701.65625 205.332031 706.207031 206.832031 702.964844 C 207.925781 700.597656 206.441406 692.6875 207.148438 689.523438 C 207.378906 688.492188 208.5625 687.445312 209.613281 687.289062 C 252.542969 687.914062 295.367188 686.460938 338.128906 685.242188 C 340.058594 685.1875 347.246094 685.628906 348.378906 685.089844 C 350.03125 684.304688 349.058594 681.960938 349.035156 680.742188 Z M 349.035156 680.742188 "/>
</clipPath>
<clipPath id="clip-2">
<path clip-rule="nonzero" d="M 349.035156 680.742188 C 348.46875 648.171875 347.097656 614.535156 345.371094 582.039062 C 345.332031 581.269531 345.007812 577.496094 344.855469 577.1875 C 344.671875 576.804688 343.964844 576.367188 343.527344 576.332031 C 341.480469 576.160156 338.554688 576.785156 336.476562 576.863281 C 267.074219 579.484375 198.152344 580.351562 128.707031 576.855469 C 122.945312 576.5625 117.183594 576.289062 111.429688 575.992188 C 110.460938 576.445312 110.289062 578.730469 110.128906 579.75 C 109.457031 584.003906 107.917969 601.238281 109.144531 604.46875 C 109.679688 605.875 110.902344 606.460938 111.703125 607.617188 C 113.179688 609.75 114.058594 612.285156 115.816406 614.261719 C 116.5 615.378906 115.398438 616.074219 115.191406 617.03125 C 114.808594 618.789062 115.496094 620.804688 116.652344 622.132812 C 118.132812 623.824219 119.59375 623.246094 121.277344 624.222656 C 124.230469 625.941406 129.011719 636.613281 131.417969 639.925781 C 133.054688 642.175781 133.316406 641.582031 135.339844 642.714844 C 137.691406 644.03125 138.453125 645.773438 138.234375 648.464844 C 138.042969 650.808594 137.0625 655.757812 136.519531 658.160156 C 136.160156 659.738281 134.847656 660.632812 134.613281 662.296875 C 134.359375 664.078125 134.804688 666.160156 134.554688 667.945312 C 134.398438 669.042969 133.703125 669.871094 133.570312 670.984375 C 133.335938 672.925781 133.695312 674.742188 135.246094 676.035156 C 138.929688 679.109375 142.222656 670.402344 145.84375 672.488281 C 146.296875 672.746094 149.128906 675.761719 149.417969 676.296875 C 150.21875 677.769531 150.824219 680.46875 151.542969 682.226562 C 153.21875 686.335938 153.742188 686.816406 154.472656 691.378906 C 155.175781 695.796875 157.597656 695.183594 159.652344 697.441406 C 161.703125 699.699219 159.816406 704.15625 164.898438 706.460938 C 169.800781 708.679688 169.3125 704.738281 172.375 704.394531 C 173.640625 704.253906 175.164062 705.042969 176.328125 704.953125 C 177.582031 704.851562 178.992188 703.296875 180.414062 703.066406 C 182.554688 702.722656 185.4375 703.417969 187.792969 703.394531 C 189.089844 703.382812 196.625 702.816406 197.203125 702.402344 C 198.347656 701.578125 198.242188 699.566406 201.164062 701.074219 C 202.289062 701.65625 205.332031 706.207031 206.832031 702.964844 C 207.925781 700.597656 206.441406 692.6875 207.148438 689.523438 C 207.378906 688.492188 208.5625 687.445312 209.613281 687.289062 C 252.542969 687.914062 295.367188 686.460938 338.128906 685.242188 C 340.058594 685.1875 347.246094 685.628906 348.378906 685.089844 C 350.03125 684.304688 349.058594 681.960938 349.035156 680.742188 "/>
</clipPath>
<linearGradient id="linear-pattern-0" gradientUnits="userSpaceOnUse" x1="-0.00318714" y1="0" x2="1.002871" y2="0" gradientTransform="matrix(240.655, 0, 0, 240.655, 108.685, 641.564)">
<stop offset="0" stop-color="rgb(93.605042%, 18.107605%, 19.841003%)" stop-opacity="1"/>
<stop offset="0.03125" stop-color="rgb(93.605042%, 18.107605%, 19.841003%)" stop-opacity="1"/>
<stop offset="0.0351562" stop-color="rgb(93.6203%, 18.296814%, 19.73877%)" stop-opacity="1"/>
<stop offset="0.0390625" stop-color="rgb(93.635559%, 18.482971%, 19.636536%)" stop-opacity="1"/>
<stop offset="0.0429688" stop-color="rgb(93.649292%, 18.670654%, 19.534302%)" stop-opacity="1"/>
<stop offset="0.046875" stop-color="rgb(93.664551%, 18.858337%, 19.430542%)" stop-opacity="1"/>
<stop offset="0.0507812" stop-color="rgb(93.684387%, 19.116211%, 19.322205%)" stop-opacity="1"/>
<stop offset="0.0546875" stop-color="rgb(93.70575%, 19.37561%, 19.212341%)" stop-opacity="1"/>
<stop offset="0.0585938" stop-color="rgb(93.728638%, 19.667053%, 19.067383%)" stop-opacity="1"/>
<stop offset="0.0625" stop-color="rgb(93.751526%, 19.955444%, 18.922424%)" stop-opacity="1"/>
<stop offset="0.0664062" stop-color="rgb(93.766785%, 20.153809%, 18.754578%)" stop-opacity="1"/>
<stop offset="0.0703125" stop-color="rgb(93.780518%, 20.352173%, 18.586731%)" stop-opacity="1"/>
<stop offset="0.0742188" stop-color="rgb(93.795776%, 20.53833%, 18.479919%)" stop-opacity="1"/>
<stop offset="0.078125" stop-color="rgb(93.811035%, 20.724487%, 18.371582%)" stop-opacity="1"/>
<stop offset="0.0820312" stop-color="rgb(93.824768%, 20.910645%, 18.263245%)" stop-opacity="1"/>
<stop offset="0.0859375" stop-color="rgb(93.840027%, 21.095276%, 18.154907%)" stop-opacity="1"/>
<stop offset="0.0898438" stop-color="rgb(93.855286%, 21.292114%, 18.045044%)" stop-opacity="1"/>
<stop offset="0.09375" stop-color="rgb(93.870544%, 21.488953%, 17.933655%)" stop-opacity="1"/>
<stop offset="0.0976562" stop-color="rgb(93.884277%, 21.662903%, 17.825317%)" stop-opacity="1"/>
<stop offset="0.101562" stop-color="rgb(93.89801%, 21.836853%, 17.715454%)" stop-opacity="1"/>
<stop offset="0.105469" stop-color="rgb(93.913269%, 22.02301%, 17.604065%)" stop-opacity="1"/>
<stop offset="0.109375" stop-color="rgb(93.927002%, 22.207642%, 17.492676%)" stop-opacity="1"/>
<stop offset="0.113281" stop-color="rgb(93.952942%, 22.532654%, 17.381287%)" stop-opacity="1"/>
<stop offset="0.117188" stop-color="rgb(93.980408%, 22.857666%, 17.269897%)" stop-opacity="1"/>
<stop offset="0.121094" stop-color="rgb(94.007874%, 23.200989%, 17.127991%)" stop-opacity="1"/>
<stop offset="0.125" stop-color="rgb(94.035339%, 23.544312%, 16.984558%)" stop-opacity="1"/>
<stop offset="0.128906" stop-color="rgb(94.049072%, 23.727417%, 16.801453%)" stop-opacity="1"/>
<stop offset="0.132812" stop-color="rgb(94.062805%, 23.910522%, 16.616821%)" stop-opacity="1"/>
<stop offset="0.136719" stop-color="rgb(94.081116%, 24.131775%, 16.566467%)" stop-opacity="1"/>
<stop offset="0.140625" stop-color="rgb(94.099426%, 24.353027%, 16.516113%)" stop-opacity="1"/>
<stop offset="0.144531" stop-color="rgb(94.122314%, 24.632263%, 16.390991%)" stop-opacity="1"/>
<stop offset="0.148438" stop-color="rgb(94.143677%, 24.909973%, 16.264343%)" stop-opacity="1"/>
<stop offset="0.152344" stop-color="rgb(94.165039%, 25.166321%, 16.139221%)" stop-opacity="1"/>
<stop offset="0.15625" stop-color="rgb(94.184875%, 25.421143%, 16.012573%)" stop-opacity="1"/>
<stop offset="0.160156" stop-color="rgb(94.206238%, 25.675964%, 15.885925%)" stop-opacity="1"/>
<stop offset="0.164062" stop-color="rgb(94.226074%, 25.92926%, 15.759277%)" stop-opacity="1"/>
<stop offset="0.167969" stop-color="rgb(94.239807%, 26.101685%, 15.640259%)" stop-opacity="1"/>
<stop offset="0.171875" stop-color="rgb(94.25354%, 26.271057%, 15.52124%)" stop-opacity="1"/>
<stop offset="0.179688" stop-color="rgb(94.265747%, 26.426697%, 15.504456%)" stop-opacity="1"/>
<stop offset="0.1875" stop-color="rgb(94.291687%, 26.73645%, 15.46936%)" stop-opacity="1"/>
<stop offset="0.195312" stop-color="rgb(94.317627%, 27.046204%, 15.435791%)" stop-opacity="1"/>
<stop offset="0.199219" stop-color="rgb(94.3573%, 27.523804%, 15.382385%)" stop-opacity="1"/>
<stop offset="0.203125" stop-color="rgb(94.384766%, 27.845764%, 15.345764%)" stop-opacity="1"/>
<stop offset="0.210938" stop-color="rgb(94.396973%, 28.001404%, 15.328979%)" stop-opacity="1"/>
<stop offset="0.214844" stop-color="rgb(94.436646%, 28.479004%, 15.275574%)" stop-opacity="1"/>
<stop offset="0.21875" stop-color="rgb(94.464111%, 28.799438%, 15.240479%)" stop-opacity="1"/>
<stop offset="0.222656" stop-color="rgb(94.477844%, 28.970337%, 15.118408%)" stop-opacity="1"/>
<stop offset="0.226562" stop-color="rgb(94.490051%, 29.139709%, 14.994812%)" stop-opacity="1"/>
<stop offset="0.230469" stop-color="rgb(94.364929%, 29.475403%, 14.898682%)" stop-opacity="1"/>
<stop offset="0.234375" stop-color="rgb(94.238281%, 29.811096%, 14.802551%)" stop-opacity="1"/>
<stop offset="0.238281" stop-color="rgb(94.264221%, 30.145264%, 14.666748%)" stop-opacity="1"/>
<stop offset="0.242188" stop-color="rgb(94.291687%, 30.477905%, 14.529419%)" stop-opacity="1"/>
<stop offset="0.25" stop-color="rgb(94.303894%, 30.638123%, 14.479065%)" stop-opacity="1"/>
<stop offset="0.253906" stop-color="rgb(94.345093%, 31.130981%, 14.283752%)" stop-opacity="1"/>
<stop offset="0.257812" stop-color="rgb(94.371033%, 31.465149%, 14.137268%)" stop-opacity="1"/>
<stop offset="0.261719" stop-color="rgb(94.398499%, 31.799316%, 13.989258%)" stop-opacity="1"/>
<stop offset="0.265625" stop-color="rgb(94.425964%, 32.131958%, 13.839722%)" stop-opacity="1"/>
<stop offset="0.269531" stop-color="rgb(94.438171%, 32.301331%, 13.710022%)" stop-opacity="1"/>
<stop offset="0.273437" stop-color="rgb(94.451904%, 32.467651%, 13.580322%)" stop-opacity="1"/>
<stop offset="0.277344" stop-color="rgb(94.477844%, 32.788086%, 13.539124%)" stop-opacity="1"/>
<stop offset="0.28125" stop-color="rgb(94.50531%, 33.108521%, 13.499451%)" stop-opacity="1"/>
<stop offset="0.285156" stop-color="rgb(94.517517%, 33.277893%, 13.337708%)" stop-opacity="1"/>
<stop offset="0.289062" stop-color="rgb(94.53125%, 33.444214%, 13.17749%)" stop-opacity="1"/>
<stop offset="0.292969" stop-color="rgb(94.700623%, 33.612061%, 12.924194%)" stop-opacity="1"/>
<stop offset="0.296875" stop-color="rgb(94.868469%, 33.776855%, 12.670898%)" stop-opacity="1"/>
<stop offset="0.300781" stop-color="rgb(94.909668%, 34.269714%, 12.397766%)" stop-opacity="1"/>
<stop offset="0.304688" stop-color="rgb(94.949341%, 34.762573%, 12.123108%)" stop-opacity="1"/>
<stop offset="0.308594" stop-color="rgb(94.807434%, 34.944153%, 12.030029%)" stop-opacity="1"/>
<stop offset="0.3125" stop-color="rgb(94.665527%, 35.125732%, 11.936951%)" stop-opacity="1"/>
<stop offset="0.316406" stop-color="rgb(94.688416%, 35.406494%, 11.877441%)" stop-opacity="1"/>
<stop offset="0.320312" stop-color="rgb(94.711304%, 35.68573%, 11.817932%)" stop-opacity="1"/>
<stop offset="0.324219" stop-color="rgb(94.744873%, 36.08551%, 11.700439%)" stop-opacity="1"/>
<stop offset="0.328125" stop-color="rgb(94.776917%, 36.485291%, 11.581421%)" stop-opacity="1"/>
<stop offset="0.332031" stop-color="rgb(94.796753%, 36.726379%, 11.334229%)" stop-opacity="1"/>
<stop offset="0.335938" stop-color="rgb(94.815063%, 36.965942%, 11.087036%)" stop-opacity="1"/>
<stop offset="0.339844" stop-color="rgb(94.854736%, 37.457275%, 10.800171%)" stop-opacity="1"/>
<stop offset="0.34375" stop-color="rgb(94.894409%, 37.948608%, 10.510254%)" stop-opacity="1"/>
<stop offset="0.347656" stop-color="rgb(94.920349%, 38.261414%, 10.237122%)" stop-opacity="1"/>
<stop offset="0.351562" stop-color="rgb(94.944763%, 38.572693%, 9.960938%)" stop-opacity="1"/>
<stop offset="0.355469" stop-color="rgb(94.958496%, 38.746643%, 9.719849%)" stop-opacity="1"/>
<stop offset="0.359375" stop-color="rgb(94.972229%, 38.922119%, 9.47876%)" stop-opacity="1"/>
<stop offset="0.363281" stop-color="rgb(95.011902%, 39.390564%, 9.399414%)" stop-opacity="1"/>
<stop offset="0.367187" stop-color="rgb(95.050049%, 39.859009%, 9.321594%)" stop-opacity="1"/>
<stop offset="0.371094" stop-color="rgb(95.075989%, 40.162659%, 9.269714%)" stop-opacity="1"/>
<stop offset="0.375" stop-color="rgb(95.100403%, 40.467834%, 9.21936%)" stop-opacity="1"/>
<stop offset="0.378906" stop-color="rgb(95.126343%, 40.771484%, 9.169006%)" stop-opacity="1"/>
<stop offset="0.382813" stop-color="rgb(95.150757%, 41.075134%, 9.117126%)" stop-opacity="1"/>
<stop offset="0.386719" stop-color="rgb(95.172119%, 41.322327%, 9.075928%)" stop-opacity="1"/>
<stop offset="0.390625" stop-color="rgb(95.191956%, 41.569519%, 9.034729%)" stop-opacity="1"/>
<stop offset="0.394531" stop-color="rgb(95.211792%, 41.799927%, 8.996582%)" stop-opacity="1"/>
<stop offset="0.398438" stop-color="rgb(95.230103%, 42.030334%, 8.956909%)" stop-opacity="1"/>
<stop offset="0.402344" stop-color="rgb(95.266724%, 42.466736%, 8.885193%)" stop-opacity="1"/>
<stop offset="0.40625" stop-color="rgb(95.303345%, 42.900085%, 8.811951%)" stop-opacity="1"/>
<stop offset="0.414062" stop-color="rgb(95.315552%, 43.057251%, 8.786011%)" stop-opacity="1"/>
<stop offset="0.417969" stop-color="rgb(95.365906%, 43.664551%, 8.683777%)" stop-opacity="1"/>
<stop offset="0.421875" stop-color="rgb(95.404053%, 44.117737%, 8.607483%)" stop-opacity="1"/>
<stop offset="0.425781" stop-color="rgb(95.428467%, 44.421387%, 8.557129%)" stop-opacity="1"/>
<stop offset="0.429688" stop-color="rgb(95.454407%, 44.726562%, 8.506775%)" stop-opacity="1"/>
<stop offset="0.433594" stop-color="rgb(95.478821%, 45.030212%, 8.454895%)" stop-opacity="1"/>
<stop offset="0.4375" stop-color="rgb(95.504761%, 45.333862%, 8.404541%)" stop-opacity="1"/>
<stop offset="0.441406" stop-color="rgb(95.530701%, 45.639038%, 8.352661%)" stop-opacity="1"/>
<stop offset="0.445312" stop-color="rgb(95.555115%, 45.942688%, 8.302307%)" stop-opacity="1"/>
<stop offset="0.449219" stop-color="rgb(95.581055%, 46.247864%, 8.250427%)" stop-opacity="1"/>
<stop offset="0.453125" stop-color="rgb(95.605469%, 46.55304%, 8.200073%)" stop-opacity="1"/>
<stop offset="0.457031" stop-color="rgb(95.631409%, 46.856689%, 8.149719%)" stop-opacity="1"/>
<stop offset="0.460938" stop-color="rgb(95.655823%, 47.160339%, 8.097839%)" stop-opacity="1"/>
<stop offset="0.464844" stop-color="rgb(95.681763%, 47.465515%, 8.047485%)" stop-opacity="1"/>
<stop offset="0.46875" stop-color="rgb(95.706177%, 47.769165%, 7.997131%)" stop-opacity="1"/>
<stop offset="0.472656" stop-color="rgb(95.852661%, 48.083496%, 7.919312%)" stop-opacity="1"/>
<stop offset="0.476563" stop-color="rgb(95.99762%, 48.399353%, 7.841492%)" stop-opacity="1"/>
<stop offset="0.480469" stop-color="rgb(96.083069%, 48.873901%, 7.752991%)" stop-opacity="1"/>
<stop offset="0.484375" stop-color="rgb(96.166992%, 49.345398%, 7.66449%)" stop-opacity="1"/>
<stop offset="0.488281" stop-color="rgb(96.134949%, 49.809265%, 7.600403%)" stop-opacity="1"/>
<stop offset="0.492188" stop-color="rgb(96.102905%, 50.270081%, 7.537842%)" stop-opacity="1"/>
<stop offset="0.496094" stop-color="rgb(96.037292%, 50.611877%, 7.499695%)" stop-opacity="1"/>
<stop offset="0.5" stop-color="rgb(95.970154%, 50.953674%, 7.463074%)" stop-opacity="1"/>
<stop offset="0.503906" stop-color="rgb(96.005249%, 51.374817%, 7.392883%)" stop-opacity="1"/>
<stop offset="0.507812" stop-color="rgb(96.040344%, 51.795959%, 7.321167%)" stop-opacity="1"/>
<stop offset="0.511719" stop-color="rgb(96.066284%, 52.101135%, 7.270813%)" stop-opacity="1"/>
<stop offset="0.515625" stop-color="rgb(96.090698%, 52.404785%, 7.220459%)" stop-opacity="1"/>
<stop offset="0.519531" stop-color="rgb(96.116638%, 52.708435%, 7.168579%)" stop-opacity="1"/>
<stop offset="0.523438" stop-color="rgb(96.141052%, 53.013611%, 7.118225%)" stop-opacity="1"/>
<stop offset="0.527344" stop-color="rgb(96.166992%, 53.317261%, 7.066345%)" stop-opacity="1"/>
<stop offset="0.53125" stop-color="rgb(96.192932%, 53.622437%, 7.015991%)" stop-opacity="1"/>
<stop offset="0.535156" stop-color="rgb(96.217346%, 53.926086%, 6.965637%)" stop-opacity="1"/>
<stop offset="0.539062" stop-color="rgb(96.243286%, 54.229736%, 6.913757%)" stop-opacity="1"/>
<stop offset="0.542969" stop-color="rgb(96.2677%, 54.534912%, 6.863403%)" stop-opacity="1"/>
<stop offset="0.546875" stop-color="rgb(96.29364%, 54.838562%, 6.813049%)" stop-opacity="1"/>
<stop offset="0.550781" stop-color="rgb(96.307373%, 55.014038%, 6.782532%)" stop-opacity="1"/>
<stop offset="0.554688" stop-color="rgb(96.322632%, 55.187988%, 6.75354%)" stop-opacity="1"/>
<stop offset="0.558594" stop-color="rgb(96.284485%, 54.73938%, 6.828308%)" stop-opacity="1"/>
<stop offset="0.5625" stop-color="rgb(96.247864%, 54.289246%, 6.904602%)" stop-opacity="1"/>
<stop offset="0.566406" stop-color="rgb(96.206665%, 53.794861%, 6.987%)" stop-opacity="1"/>
<stop offset="0.570312" stop-color="rgb(96.165466%, 53.302002%, 7.069397%)" stop-opacity="1"/>
<stop offset="0.574219" stop-color="rgb(96.134949%, 52.926636%, 7.131958%)" stop-opacity="1"/>
<stop offset="0.578125" stop-color="rgb(96.102905%, 52.55127%, 7.196045%)" stop-opacity="1"/>
<stop offset="0.582031" stop-color="rgb(96.063232%, 52.056885%, 7.278442%)" stop-opacity="1"/>
<stop offset="0.585938" stop-color="rgb(96.022034%, 51.5625%, 7.36084%)" stop-opacity="1"/>
<stop offset="0.589844" stop-color="rgb(96.029663%, 51.074219%, 7.432556%)" stop-opacity="1"/>
<stop offset="0.59375" stop-color="rgb(96.038818%, 50.584412%, 7.504272%)" stop-opacity="1"/>
<stop offset="0.597656" stop-color="rgb(96.101379%, 49.937439%, 7.588196%)" stop-opacity="1"/>
<stop offset="0.601562" stop-color="rgb(96.162415%, 49.28894%, 7.673645%)" stop-opacity="1"/>
<stop offset="0.605469" stop-color="rgb(95.94574%, 48.66333%, 7.8125%)" stop-opacity="1"/>
<stop offset="0.609375" stop-color="rgb(95.729065%, 48.039246%, 7.951355%)" stop-opacity="1"/>
<stop offset="0.613281" stop-color="rgb(95.697021%, 47.660828%, 8.013916%)" stop-opacity="1"/>
<stop offset="0.617188" stop-color="rgb(95.666504%, 47.280884%, 8.078003%)" stop-opacity="1"/>
<stop offset="0.621094" stop-color="rgb(95.629883%, 46.836853%, 8.152771%)" stop-opacity="1"/>
<stop offset="0.625" stop-color="rgb(95.593262%, 46.394348%, 8.226013%)" stop-opacity="1"/>
<stop offset="0.628906" stop-color="rgb(95.552063%, 45.899963%, 8.309937%)" stop-opacity="1"/>
<stop offset="0.632812" stop-color="rgb(95.510864%, 45.407104%, 8.392334%)" stop-opacity="1"/>
<stop offset="0.636719" stop-color="rgb(95.469666%, 44.914246%, 8.474731%)" stop-opacity="1"/>
<stop offset="0.640625" stop-color="rgb(95.428467%, 44.419861%, 8.557129%)" stop-opacity="1"/>
<stop offset="0.644531" stop-color="rgb(95.387268%, 43.927002%, 8.639526%)" stop-opacity="1"/>
<stop offset="0.648438" stop-color="rgb(95.347595%, 43.434143%, 8.721924%)" stop-opacity="1"/>
<stop offset="0.652344" stop-color="rgb(95.315552%, 43.049622%, 8.786011%)" stop-opacity="1"/>
<stop offset="0.65625" stop-color="rgb(95.283508%, 42.666626%, 8.851624%)" stop-opacity="1"/>
<stop offset="0.660156" stop-color="rgb(95.246887%, 42.228699%, 8.924866%)" stop-opacity="1"/>
<stop offset="0.664062" stop-color="rgb(95.210266%, 41.789246%, 8.998108%)" stop-opacity="1"/>
<stop offset="0.667969" stop-color="rgb(95.178223%, 41.404724%, 9.062195%)" stop-opacity="1"/>
<stop offset="0.671875" stop-color="rgb(95.146179%, 41.018677%, 9.126282%)" stop-opacity="1"/>
<stop offset="0.675781" stop-color="rgb(95.106506%, 40.525818%, 9.210205%)" stop-opacity="1"/>
<stop offset="0.679688" stop-color="rgb(95.065308%, 40.031433%, 9.292603%)" stop-opacity="1"/>
<stop offset="0.683594" stop-color="rgb(95.024109%, 39.529419%, 9.457397%)" stop-opacity="1"/>
<stop offset="0.6875" stop-color="rgb(94.981384%, 39.027405%, 9.622192%)" stop-opacity="1"/>
<stop offset="0.691406" stop-color="rgb(94.943237%, 38.549805%, 10.125732%)" stop-opacity="1"/>
<stop offset="0.695312" stop-color="rgb(94.90509%, 38.070679%, 10.626221%)" stop-opacity="1"/>
<stop offset="0.699219" stop-color="rgb(94.863892%, 37.548828%, 10.978699%)" stop-opacity="1"/>
<stop offset="0.703125" stop-color="rgb(94.821167%, 37.026978%, 11.326599%)" stop-opacity="1"/>
<stop offset="0.707031" stop-color="rgb(94.787598%, 36.621094%, 11.535645%)" stop-opacity="1"/>
<stop offset="0.710938" stop-color="rgb(94.755554%, 36.21521%, 11.741638%)" stop-opacity="1"/>
<stop offset="0.714844" stop-color="rgb(94.775391%, 35.76355%, 11.949158%)" stop-opacity="1"/>
<stop offset="0.71875" stop-color="rgb(94.796753%, 35.310364%, 12.156677%)" stop-opacity="1"/>
<stop offset="0.722656" stop-color="rgb(94.854736%, 34.788513%, 12.435913%)" stop-opacity="1"/>
<stop offset="0.726562" stop-color="rgb(94.909668%, 34.265137%, 12.712097%)" stop-opacity="1"/>
<stop offset="0.730469" stop-color="rgb(94.822693%, 33.894348%, 13.104248%)" stop-opacity="1"/>
<stop offset="0.734375" stop-color="rgb(94.735718%, 33.522034%, 13.493347%)" stop-opacity="1"/>
<stop offset="0.738281" stop-color="rgb(94.607544%, 33.149719%, 13.887024%)" stop-opacity="1"/>
<stop offset="0.742188" stop-color="rgb(94.480896%, 32.777405%, 14.276123%)" stop-opacity="1"/>
<stop offset="0.746094" stop-color="rgb(94.297791%, 32.43103%, 14.451599%)" stop-opacity="1"/>
<stop offset="0.75" stop-color="rgb(94.114685%, 32.084656%, 14.627075%)" stop-opacity="1"/>
<stop offset="0.753906" stop-color="rgb(94.07196%, 31.544495%, 15.011597%)" stop-opacity="1"/>
<stop offset="0.757812" stop-color="rgb(94.029236%, 31.004333%, 15.391541%)" stop-opacity="1"/>
<stop offset="0.761719" stop-color="rgb(93.988037%, 30.49469%, 15.512085%)" stop-opacity="1"/>
<stop offset="0.765625" stop-color="rgb(93.948364%, 29.986572%, 15.629578%)" stop-opacity="1"/>
<stop offset="0.769531" stop-color="rgb(94.068909%, 29.563904%, 15.794373%)" stop-opacity="1"/>
<stop offset="0.773438" stop-color="rgb(94.187927%, 29.139709%, 15.959167%)" stop-opacity="1"/>
<stop offset="0.777344" stop-color="rgb(94.151306%, 28.668213%, 16.256714%)" stop-opacity="1"/>
<stop offset="0.78125" stop-color="rgb(94.114685%, 28.19519%, 16.551208%)" stop-opacity="1"/>
<stop offset="0.785156" stop-color="rgb(94.084167%, 27.801514%, 16.999817%)" stop-opacity="1"/>
<stop offset="0.789062" stop-color="rgb(94.05365%, 27.404785%, 17.446899%)" stop-opacity="1"/>
<stop offset="0.792969" stop-color="rgb(94.024658%, 27.029419%, 17.74292%)" stop-opacity="1"/>
<stop offset="0.796875" stop-color="rgb(93.995667%, 26.652527%, 18.037415%)" stop-opacity="1"/>
<stop offset="0.800781" stop-color="rgb(93.974304%, 26.376343%, 18.119812%)" stop-opacity="1"/>
<stop offset="0.804688" stop-color="rgb(93.951416%, 26.098633%, 18.200684%)" stop-opacity="1"/>
<stop offset="0.8125" stop-color="rgb(93.939209%, 25.944519%, 18.211365%)" stop-opacity="1"/>
<stop offset="0.816406" stop-color="rgb(93.913269%, 25.628662%, 18.336487%)" stop-opacity="1"/>
<stop offset="0.820312" stop-color="rgb(93.901062%, 25.463867%, 18.447876%)" stop-opacity="1"/>
<stop offset="0.828125" stop-color="rgb(93.888855%, 25.315857%, 18.458557%)" stop-opacity="1"/>
<stop offset="0.835938" stop-color="rgb(93.864441%, 25.019836%, 18.479919%)" stop-opacity="1"/>
<stop offset="0.839844" stop-color="rgb(93.832397%, 24.612427%, 18.608093%)" stop-opacity="1"/>
<stop offset="0.84375" stop-color="rgb(93.811035%, 24.351501%, 18.725586%)" stop-opacity="1"/>
<stop offset="0.847656" stop-color="rgb(93.840027%, 24.128723%, 18.733215%)" stop-opacity="1"/>
<stop offset="0.851562" stop-color="rgb(93.869019%, 23.902893%, 18.742371%)" stop-opacity="1"/>
<stop offset="0.855469" stop-color="rgb(93.960571%, 23.731995%, 18.838501%)" stop-opacity="1"/>
<stop offset="0.859375" stop-color="rgb(94.050598%, 23.561096%, 18.933105%)" stop-opacity="1"/>
<stop offset="0.867188" stop-color="rgb(94.038391%, 23.413086%, 18.942261%)" stop-opacity="1"/>
<stop offset="0.871094" stop-color="rgb(94.000244%, 22.947693%, 18.974304%)" stop-opacity="1"/>
<stop offset="0.875" stop-color="rgb(93.974304%, 22.628784%, 18.995667%)" stop-opacity="1"/>
<stop offset="0.878906" stop-color="rgb(93.946838%, 22.294617%, 19.114685%)" stop-opacity="1"/>
<stop offset="0.882812" stop-color="rgb(93.919373%, 21.958923%, 19.230652%)" stop-opacity="1"/>
<stop offset="0.890625" stop-color="rgb(93.907166%, 21.809387%, 19.241333%)" stop-opacity="1"/>
<stop offset="0.898438" stop-color="rgb(93.882751%, 21.513367%, 19.259644%)" stop-opacity="1"/>
<stop offset="0.902344" stop-color="rgb(93.850708%, 21.125793%, 19.284058%)" stop-opacity="1"/>
<stop offset="0.90625" stop-color="rgb(93.830872%, 20.887756%, 19.299316%)" stop-opacity="1"/>
<stop offset="0.910156" stop-color="rgb(93.817139%, 20.701599%, 19.406128%)" stop-opacity="1"/>
<stop offset="0.914062" stop-color="rgb(93.80188%, 20.513916%, 19.511414%)" stop-opacity="1"/>
<stop offset="0.921875" stop-color="rgb(93.80188%, 20.513916%, 19.511414%)" stop-opacity="1"/>
<stop offset="0.925781" stop-color="rgb(93.788147%, 20.346069%, 19.522095%)" stop-opacity="1"/>
<stop offset="0.929688" stop-color="rgb(93.774414%, 20.175171%, 19.532776%)" stop-opacity="1"/>
<stop offset="0.933594" stop-color="rgb(93.760681%, 20.007324%, 19.541931%)" stop-opacity="1"/>
<stop offset="0.9375" stop-color="rgb(93.746948%, 19.837952%, 19.552612%)" stop-opacity="1"/>
<stop offset="0.941406" stop-color="rgb(93.721008%, 19.520569%, 19.572449%)" stop-opacity="1"/>
<stop offset="0.945312" stop-color="rgb(93.693542%, 19.203186%, 19.592285%)" stop-opacity="1"/>
<stop offset="0.953125" stop-color="rgb(93.681335%, 19.05365%, 19.60144%)" stop-opacity="1"/>
<stop offset="0.960938" stop-color="rgb(93.656921%, 18.743896%, 19.677734%)" stop-opacity="1"/>
<stop offset="0.964844" stop-color="rgb(93.624878%, 18.347168%, 19.793701%)" stop-opacity="1"/>
<stop offset="0.96875" stop-color="rgb(93.605042%, 18.107605%, 19.841003%)" stop-opacity="1"/>
<stop offset="1" stop-color="rgb(93.605042%, 18.107605%, 19.841003%)" stop-opacity="1"/>
</linearGradient>
</defs>
<path fill-rule="nonzero" fill="rgb(14.398193%, 15.109253%, 16.731262%)" fill-opacity="1" d="M 37.160156 726.851562 L 37.160156 758.773438 L 50.910156 758.773438 L 50.910156 767.558594 L 27.449219 767.558594 L 27.449219 726.851562 L 37.160156 726.851562 "/>
<path fill-rule="nonzero" fill="rgb(14.398193%, 15.109253%, 16.731262%)" fill-opacity="1" d="M 57.023438 726.851562 L 66.734375 726.851562 L 66.734375 767.558594 L 57.023438 767.558594 L 57.023438 726.851562 "/>
<path fill-rule="nonzero" fill="rgb(14.398193%, 15.109253%, 16.731262%)" fill-opacity="1" d="M 95.761719 768.867188 C 83.046875 768.867188 73.171875 759.152344 73.171875 747.148438 C 73.171875 735.199219 83.046875 725.539062 95.761719 725.539062 C 101.710938 725.539062 107.332031 727.832031 111.148438 731.269531 L 104.929688 738.199219 C 102.527344 735.800781 99.253906 734.4375 95.761719 734.4375 C 88.507812 734.4375 82.941406 740.109375 82.941406 747.148438 C 82.941406 754.296875 88.507812 759.972656 95.761719 759.972656 C 100.726562 759.972656 104.710938 756.644531 106.074219 752.167969 L 96.035156 752.167969 L 99.253906 744.367188 L 116.390625 744.367188 L 116.390625 747.09375 C 116.390625 759.316406 107.332031 768.867188 95.761719 768.867188 "/>
<path fill-rule="nonzero" fill="rgb(14.398193%, 15.109253%, 16.731262%)" fill-opacity="1" d="M 122.773438 726.851562 L 132.484375 726.851562 L 132.484375 741.476562 L 146.019531 741.476562 L 146.019531 726.851562 L 155.730469 726.851562 L 155.730469 767.558594 L 146.019531 767.558594 L 146.019531 750.261719 L 132.484375 750.261719 L 132.484375 767.558594 L 122.773438 767.558594 L 122.773438 726.851562 "/>
<path fill-rule="nonzero" fill="rgb(14.398193%, 15.109253%, 16.731262%)" fill-opacity="1" d="M 168.5 735.582031 L 161.515625 735.582031 L 161.515625 726.851562 L 185.140625 726.851562 L 185.140625 735.582031 L 178.210938 735.582031 L 178.210938 767.558594 L 168.5 767.558594 L 168.5 735.582031 "/>
<path fill-rule="nonzero" fill="rgb(14.398193%, 15.109253%, 16.731262%)" fill-opacity="1" d="M 213.679688 726.851562 L 213.679688 763.082031 L 228.683594 763.082031 L 228.683594 767.558594 L 208.660156 767.558594 L 208.660156 726.851562 L 213.679688 726.851562 "/>
<path fill-rule="nonzero" fill="rgb(14.398193%, 15.109253%, 16.731262%)" fill-opacity="1" d="M 235.34375 747.09375 C 235.34375 756.316406 243.035156 764.28125 252.53125 764.28125 C 262.023438 764.28125 269.664062 756.371094 269.664062 747.09375 C 269.664062 738.09375 262.023438 730.125 252.53125 730.125 C 243.035156 730.125 235.34375 738.09375 235.34375 747.09375 Z M 274.738281 747.148438 C 274.738281 759.152344 264.914062 768.867188 252.53125 768.867188 C 240.089844 768.867188 230.265625 759.152344 230.265625 747.148438 C 230.265625 735.199219 240.089844 725.539062 252.53125 725.539062 C 264.914062 725.539062 274.738281 735.199219 274.738281 747.148438 "/>
<path fill-rule="nonzero" fill="rgb(14.398193%, 15.109253%, 16.731262%)" fill-opacity="1" d="M 296.671875 768.867188 C 286.960938 768.867188 281.832031 762.210938 281.832031 751.679688 L 281.832031 726.851562 L 286.851562 726.851562 L 286.851562 753.261719 C 286.851562 760.570312 291.652344 764.28125 296.671875 764.28125 C 301.910156 764.28125 306.605469 760.570312 306.605469 753.261719 L 306.605469 726.851562 L 311.625 726.851562 L 311.625 751.679688 C 311.625 762.210938 306.605469 768.867188 296.671875 768.867188 "/>
<path fill-rule="nonzero" fill="rgb(14.398193%, 15.109253%, 16.731262%)" fill-opacity="1" d="M 325.046875 734.980469 L 325.046875 767.558594 L 320.027344 767.558594 L 320.027344 726.851562 L 325.320312 726.851562 L 348.074219 758.9375 L 348.074219 726.851562 L 353.09375 726.851562 L 353.09375 767.558594 L 348.183594 767.558594 L 325.046875 734.980469 "/>
<path fill-rule="nonzero" fill="rgb(14.398193%, 15.109253%, 16.731262%)" fill-opacity="1" d="M 382.449219 768.867188 C 370.007812 768.867188 360.1875 759.152344 360.1875 747.148438 C 360.1875 735.199219 370.007812 725.539062 382.449219 725.539062 C 388.34375 725.539062 393.855469 727.777344 397.621094 731.214844 L 394.238281 734.707031 C 390.90625 731.761719 386.925781 730.125 382.449219 730.125 C 372.957031 730.125 365.261719 738.09375 365.261719 747.09375 C 365.261719 756.316406 372.957031 764.28125 382.449219 764.28125 C 390.527344 764.28125 397.128906 757.679688 397.890625 749.714844 L 384.03125 749.769531 L 386.050781 745.128906 L 403.074219 745.128906 L 403.074219 747.257812 C 403.074219 759.152344 393.964844 768.867188 382.449219 768.867188 "/>
<path fill-rule="nonzero" fill="rgb(14.398193%, 15.109253%, 16.731262%)" fill-opacity="1" d="M 410.117188 726.851562 L 430.46875 726.851562 L 430.46875 731.214844 L 415.136719 731.214844 L 415.136719 743.820312 L 429.324219 743.820312 L 429.324219 748.1875 L 415.136719 748.1875 L 415.136719 763.191406 L 430.90625 763.191406 L 430.90625 767.558594 L 410.117188 767.558594 L 410.117188 726.851562 "/>
<path fill-rule="nonzero" fill="rgb(14.398193%, 15.109253%, 16.731262%)" fill-opacity="1" d="M 221.679688 708.738281 L 218.941406 708.738281 L 218.941406 694.359375 L 221.796875 694.359375 L 226.496094 701.703125 L 231.007812 694.359375 L 233.820312 694.359375 L 233.820312 708.738281 L 231.085938 708.738281 L 231.085938 699.140625 L 226.652344 706.117188 L 226.265625 706.117188 L 221.679688 699.082031 L 221.679688 708.738281 "/>
<path fill-rule="nonzero" fill="rgb(14.398193%, 15.109253%, 16.731262%)" fill-opacity="1" d="M 241.863281 701.53125 C 241.863281 704.324219 244.136719 706.675781 247.007812 706.675781 C 249.898438 706.675781 252.152344 704.34375 252.152344 701.53125 C 252.152344 698.753906 249.898438 696.421875 247.007812 696.421875 C 244.136719 696.421875 241.863281 698.753906 241.863281 701.53125 Z M 254.929688 701.53125 C 254.929688 705.769531 251.441406 709.203125 247.007812 709.203125 C 242.558594 709.203125 239.089844 705.769531 239.089844 701.53125 C 239.089844 697.308594 242.558594 693.898438 247.007812 693.898438 C 251.441406 693.898438 254.929688 697.308594 254.929688 701.53125 "/>
<path fill-rule="nonzero" fill="rgb(14.398193%, 15.109253%, 16.731262%)" fill-opacity="1" d="M 262.953125 698.984375 L 262.953125 708.738281 L 260.195312 708.738281 L 260.195312 694.359375 L 262.914062 694.359375 L 269.890625 704.054688 L 269.890625 694.359375 L 272.644531 694.359375 L 272.644531 708.738281 L 269.988281 708.738281 L 262.953125 698.984375 "/>
<path fill-rule="nonzero" fill="rgb(14.398193%, 15.109253%, 16.731262%)" fill-opacity="1" d="M 280.148438 696.828125 L 277.625 696.828125 L 277.625 694.359375 L 285.429688 694.359375 L 285.429688 696.828125 L 282.902344 696.828125 L 282.902344 708.738281 L 280.148438 708.738281 L 280.148438 696.828125 "/>
<path fill-rule="nonzero" fill="rgb(14.398193%, 15.109253%, 16.731262%)" fill-opacity="1" d="M 297.941406 704.035156 L 295.589844 697.734375 L 293.21875 704.035156 Z M 298.769531 706.253906 L 292.390625 706.253906 L 291.445312 708.738281 L 288.59375 708.738281 L 294.257812 694.359375 L 296.996094 694.359375 L 302.660156 708.738281 L 299.691406 708.738281 L 298.769531 706.253906 "/>
<path fill-rule="nonzero" fill="rgb(14.398193%, 15.109253%, 16.731262%)" fill-opacity="1" d="M 310.257812 698.984375 L 310.257812 708.738281 L 307.503906 708.738281 L 307.503906 694.359375 L 310.222656 694.359375 L 317.195312 704.054688 L 317.195312 694.359375 L 319.953125 694.359375 L 319.953125 708.738281 L 317.292969 708.738281 L 310.257812 698.984375 "/>
<path fill-rule="nonzero" fill="rgb(14.398193%, 15.109253%, 16.731262%)" fill-opacity="1" d="M 334.144531 704.035156 L 331.789062 697.734375 L 329.421875 704.035156 Z M 334.972656 706.253906 L 328.59375 706.253906 L 327.648438 708.738281 L 324.796875 708.738281 L 330.460938 694.359375 L 333.199219 694.359375 L 338.863281 708.738281 L 335.894531 708.738281 L 334.972656 706.253906 "/>
<g clip-path="url(#clip-0)">
<g clip-path="url(#clip-1)">
<g clip-path="url(#clip-2)">
<path fill-rule="nonzero" fill="url(#linear-pattern-0)" d="M 107.917969 575.992188 L 107.917969 708.679688 L 350.03125 708.679688 L 350.03125 575.992188 Z M 107.917969 575.992188 "/>
</g>
</g>
</g>
<path fill-rule="nonzero" fill="rgb(100%, 100%, 100%)" fill-opacity="1" d="M 218.8125 601.253906 C 222.507812 599.0625 227.039062 598.28125 231.527344 599.433594 C 236.015625 600.578125 239.617188 603.441406 241.808594 607.136719 C 243.996094 610.832031 244.777344 615.363281 243.628906 619.851562 C 242.480469 624.34375 239.621094 627.941406 235.925781 630.132812 C 235.101562 630.621094 234.234375 631.039062 233.339844 631.378906 C 236.476562 629.257812 238.882812 626.019531 239.894531 622.058594 C 240.996094 617.761719 240.25 613.421875 238.152344 609.886719 C 236.054688 606.347656 232.609375 603.609375 228.3125 602.511719 C 224.015625 601.410156 219.675781 602.160156 216.140625 604.253906 C 215.214844 604.804688 214.34375 605.441406 213.542969 606.167969 C 214.933594 604.148438 216.742188 602.480469 218.8125 601.253906 "/>
<path fill-rule="nonzero" fill="rgb(100%, 100%, 100%)" fill-opacity="1" d="M 336.453125 647.660156 C 330.628906 648.234375 322.992188 646.75 317.410156 648.078125 C 313.855469 648.925781 311.726562 655.039062 306.257812 655.046875 C 296.777344 655.0625 296.046875 638.585938 293.261719 632.132812 C 293.027344 631.582031 292.816406 630.753906 291.996094 630.886719 C 289.304688 641.117188 289.140625 652.425781 286.597656 662.578125 C 285.5625 666.714844 284.351562 672.347656 278.804688 671.089844 C 274.152344 670.035156 272.347656 657.820312 271.625 653.769531 C 269.160156 639.925781 267.996094 625.808594 264.785156 612.105469 L 263.769531 612.285156 C 262.496094 618.664062 261.460938 625.085938 259.746094 631.363281 C 256.804688 642.125 253.871094 652.769531 239.902344 649.582031 C 231.308594 647.617188 218.941406 631.0625 212.457031 624.332031 C 211.261719 623.089844 206.078125 617.554688 204.878906 617.472656 C 203.132812 617.351562 201.1875 619.78125 200.019531 620.976562 C 195.558594 625.550781 191.703125 630.832031 187.414062 635.574219 C 187.039062 636.378906 187.464844 636.921875 187.765625 637.613281 C 188.539062 639.375 193.101562 644.546875 193.007812 645.816406 C 192.980469 646.164062 192.78125 646.546875 192.441406 646.644531 C 190.78125 647.121094 176.789062 636.0625 174.304688 634.632812 C 173.238281 633.980469 172.199219 634.113281 171.179688 634.761719 C 168.4375 636.503906 165.066406 640.167969 162.265625 642.289062 C 159.300781 644.53125 156.296875 646.664062 152.691406 647.820312 C 150.84375 648.414062 146.441406 649.953125 147.980469 646.464844 C 157.617188 640.257812 164.929688 630.726562 172.175781 621.996094 C 172.753906 621.640625 174.210938 621.730469 174.851562 622 C 176.101562 622.527344 179.746094 628.09375 181.394531 629.226562 C 181.6875 629.433594 181.847656 629.710938 182.238281 629.394531 L 203.066406 603.886719 L 204.25 603.367188 C 206.425781 603.230469 210.824219 609.601562 212.253906 611.449219 C 217.535156 618.289062 222.105469 625.714844 227.417969 632.53125 C 231.71875 638.039062 239.910156 648.921875 247.847656 642.625 C 254.714844 637.175781 256.667969 612.5625 260.28125 603.703125 C 262.574219 598.078125 267.078125 599.726562 268.996094 604.714844 C 275.457031 621.53125 274.546875 644.609375 279.332031 662.171875 C 280.234375 665.484375 280.890625 663.128906 281.210938 661.21875 C 282.519531 653.425781 284.523438 628.058594 289.160156 622.851562 C 290.867188 620.9375 293.253906 620.4375 295.234375 622.277344 C 298.585938 625.394531 300.96875 639.941406 303.242188 644.976562 C 306.644531 652.523438 309.628906 645.339844 313.628906 643.292969 C 318.632812 640.730469 330.863281 643.140625 336.777344 642.320312 C 339.820312 642.796875 338.671875 646.859375 336.453125 647.660156 "/>
</svg>
